<?xml version="1.0" encoding="UTF-8" standalone="no"?>
<!-- Generator: Adobe Illustrator 26.5.0, SVG Export Plug-In . SVG Version: 6.00 Build 0)  -->

<svg
   version="1.1"
   id="Layer_1"
   x="0px"
   y="0px"
   viewBox="200 450 1600 180"
   style="enable-background:new 0 0 1920 1080;"
   xml:space="preserve"
   sodipodi:docname="soundcloud5.svg"
   inkscape:version="1.2.1 (9c6d41e410, 2022-07-14)"
   xmlns:inkscape="http://www.inkscape.org/namespaces/inkscape"
   xmlns:sodipodi="http://sodipodi.sourceforge.net/DTD/sodipodi-0.dtd"
   xmlns="http://www.w3.org/2000/svg"
   xmlns:svg="http://www.w3.org/2000/svg"><defs
   id="defs45" /><sodipodi:namedview
   id="namedview43"
   pagecolor="#ff7171"
   bordercolor="#666666"
   borderopacity="1.0"
   inkscape:showpageshadow="2"
   inkscape:pageopacity="0"
   inkscape:pagecheckerboard="0"
   inkscape:deskcolor="#d1d1d1"
   showgrid="false"
   inkscape:zoom="0.7675"
   inkscape:cx="699.0228"
   inkscape:cy="78.175896"
   inkscape:window-width="1920"
   inkscape:window-height="1017"
   inkscape:window-x="1916"
   inkscape:window-y="1082"
   inkscape:window-maximized="1"
   inkscape:current-layer="g40" />
<style
   type="text/css"
   id="style2">
	.st0{fill:#FFFFFF;}
</style>
<g
   id="g40"
   inkscape:label="g40">
	<path
   class="st0"
   d="m 847.24104,611.57036 c 25.1,0 42.6,-19.7 42.6,-52.3 0,-32.6 -17.1,-52 -42.3,-52 -25.2,0 -42.7,19.6 -42.7,52.2 0,32.6 17.3,52.1 42.4,52.1 z m -0.1,-84.2 c 13.5,0 22.9,11.7 22.9,32.2 0,20.5 -9,31.9 -22.5,31.9 -13.5,0 -22.9,-11.7 -22.9,-32.2 0.2,-20.4 9.1,-31.8 22.5,-31.9 z"
   id="path4" />
	<path
   class="st0"
   d="m 1040.841,565.47036 c 0,-5.6 -0.3,-18.3 -0.3,-22.1 1.2,2.6 4.4,7.7 6.7,11.4 l 35.5,55.2 h 17.2 v -101 h -19 v 42.7 c 0,5.7 0.2,18.4 0.2,22.1 -1.2,-2.6 -4.4,-7.7 -6.7,-11.4 l -34.2,-53.4 h -18.5 v 101 h 19 v -44.5 z"
   id="path6" />
	<path
   class="st0"
   d="m 1274.341,611.57036 c 15.6,0.7 29.9,-8.5 35.7,-22.8 l -16.3,-10.1 c -5.1,9 -10.2,12.9 -18.9,12.9 -14.5,0 -22.9,-13.3 -22.9,-32.1 0,-18.8 8.3,-32.1 22.8,-32.1 7.6,-0.4 14.6,4 17.6,10.9 l 17.9,-8.7 c -5.8,-14.1 -20,-23.1 -35.3,-22.4 -25.3,0 -42.9,21.4 -42.9,52.1 0.1,32.1 17.1,52.3 42.3,52.3 z"
   id="path8" />
	<path
   class="st0"
   d="m 1712.041,559.97036 c 0,-36.9 -20.4,-50.5 -48,-50.5 h -30.2 v 101.1 h 28.8 c 24.8,0 49.4,-15 49.4,-50.6 z m -58.7,-30.9 h 10 c 20.4,0 28.8,10.1 28.8,30.9 0,18.4 -9.1,30.9 -29.3,30.9 h -9.5 z"
   id="path10" />
	<path
   class="st0"
   d="m 1563.741,611.57036 c 24.6,0 39.3,-16.9 39.3,-46.2 v -56.5 h -19.4 v 56.7 c 0,16.2 -7.6,26.1 -19.9,26.1 -12.3,0 -19.7,-10.2 -19.7,-26.4 v -56.5 h -19.3 v 56.9 c 0,29.3 15.7,45.9 39,45.9 z"
   id="path12" />
	<path
   class="st0"
   d="m 750.04104,591.77036 c -9.6,0.2 -18.7,-4.1 -24.7,-11.5 l -13.9,13 c 8.6,12.1 22.8,19 37.7,18.4 26.3,0 37.9,-13 37.6,-32.2 0,-21.9 -17,-27.4 -32.2,-31.2 -15.3,-3.8 -19.4,-5.8 -19.4,-12.1 0,-4.5 3.4,-9.1 13.8,-9.1 8.5,0.1 16.5,3.9 21.9,10.4 l 13.9,-14.2 c -8.7,-10.3 -21.6,-16.1 -35.2,-15.9 -19,0 -34.4,11.2 -34.4,29.6 0,19.9 12,25.8 30.2,30.1 18.2,4.3 21.5,7.2 21.5,13.7 0,7.7 -5.3,11 -16.8,11 z"
   id="path14" />
	<path
   class="st0"
   d="m 1208.641,559.47036 c 0,-37 -20.4,-50.5 -48,-50.5 h -30.2 v 101 h 28.8 c 24.8,0 49.4,-15 49.4,-50.5 z m -58.9,-31 h 10.2 v 0 c 20.4,0 28.8,10.3 28.6,30.9 0,18.4 -9,30.9 -29.3,30.9 h -9.5 z"
   id="path16" />
	<path
   class="st0"
   d="M235.2,608.6c2.3,0,4.2-1.9,4.2-4.2c4.6-20.8,7-37.4,0.4-58c-0.2-2.4-2.2-4.1-4.6-4.1c-2.4,0-4.4,1.8-4.6,4.1   c-5.4,20.4-3.6,37.5,0.4,58C231,606.7,232.9,608.6,235.2,608.6z"
   id="path18" />
	<path
   class="st0"
   d="m 992.04104,508.87036 h -19.3 v 56.7 c 0,16.2 -7.6,26.1 -19.9,26.1 -12.3,0 -19.7,-10.2 -19.7,-26.4 v -56.5 h -19.3 v 56.9 c 0,29.1 15.7,45.8 39,45.8 24.6,0 39.2,-16.9 39.2,-46.2 z"
   id="path20" />
	<path
   class="st0"
   d="m 1458.141,611.57036 c 25.1,0 42.6,-19.7 42.6,-52.3 0,-32.6 -17.1,-52 -42.3,-52 -25.2,0 -42.7,19.6 -42.7,52.2 0,32.6 17.3,52.1 42.4,52.1 z m 0,-84.2 c 13.5,0 22.9,11.7 22.9,32.2 0,20.5 -8.9,31.9 -22.5,31.9 -13.5,0 -22.9,-11.7 -22.9,-32.2 0.1,-20.4 9,-31.8 22.5,-31.9 z"
   id="path22" />
	<path
   class="st0"
   d="M429.8,627h133.4c29.2,0,54.6-22.3,55.4-51.4c0.4-14.3-5-28.2-15-38.5c-10-10.3-23.8-16.1-38.3-16.1   c-4.8,0-9.6,0.6-14.2,2c-5.2-24.1-20.5-45-41.9-57.5c-13.6-8.1-29.2-12.3-45-12.2c-25.8,0-38,8.3-38,8.3c-4.7,2-7.6,6.7-7.4,11.7   V616C418.7,622,423.7,627,429.8,627z"
   id="path24" />
	<polygon
   class="st0"
   points="1387.4,590.7 1387.4,570.8 1339,570.8 1339,489.6 1319.8,489.6 1319.8,590.7 "
   id="polygon26"
   transform="translate(18.241042,19.270358)" />
	<path
   class="st0"
   d="M266.8,619.5c4.4-30.9,6.5-57,0.2-87.8c-0.3-2.3-2.3-4-4.6-4c-2.3,0-4.3,1.7-4.6,4   c-5.5,30.4-3.8,57.3,0.2,87.8C258.4,624.1,266.4,624,266.8,619.5z"
   id="path28" />
	<path
   class="st0"
   d="M397.8,627.4c2.4,0,4.3-1.9,4.3-4.3c7-48.3,4-92.3,0-140.7c0-2.4-1.9-4.3-4.3-4.3s-4.3,1.9-4.3,4.3   c-3.6,47.9-6.5,92.9,0,140.7C393.4,625.5,395.4,627.4,397.8,627.4z"
   id="path30" />
	<path
   class="st0"
   d="M370.6,627.2c2.3,0,4.2-1.7,4.5-3.9c6.1-43.3,4.7-81.1,0.1-124.2c0-2.5-2-4.5-4.5-4.5c-2.5,0-4.5,2-4.5,4.5   c-4.2,42.8-5.4,81.5,0,124.2C366.4,625.5,368.3,627.2,370.6,627.2z"
   id="path32" />
	<path
   class="st0"
   d="M316.7,627.4c2.3,0,4.2-1.7,4.4-4c5.4-38.5,5.4-77.5,0.1-115.9c0-2.5-2-4.5-4.5-4.5c-2.5,0-4.5,2-4.5,4.5   c-5,38.5-5,77.5,0,115.9C312.5,625.6,314.4,627.4,316.7,627.4z"
   id="path34" />
	<path
   class="st0"
   d="M343.7,627.5c2.4,0,4.3-1.9,4.3-4.3c6.4-44.3,4.4-84,0-128.2c0-2.4-1.9-4.3-4.3-4.3c-2.4,0-4.3,1.9-4.3,4.3   c-4.2,43.7-6.2,84.6,0,128.2C339.4,625.5,341.3,627.5,343.7,627.5z"
   id="path36" />
	<path
   class="st0"
   d="M289.3,627.7c2.3,0,4.2-1.9,4.2-4.2c4.2-30.6,7.3-57.2,0.5-87.4c-0.2-2.3-2.1-4-4.4-4c-2.3,0-4.2,1.7-4.4,4   c-6.5,29.9-3.4,57.3,0,87.4C285.1,625.8,287,627.7,289.3,627.7z"
   id="path38" />
</g>
</svg>
