<?xml version="1.0" encoding="UTF-8" standalone="no"?>
<svg
   id="Layer_1"
   viewBox="0 0 910 225"
   version="1.1"
   sodipodi:docname="spotify.svg"
   inkscape:version="1.2.1 (9c6d41e410, 2022-07-14)"
   xmlns:inkscape="http://www.inkscape.org/namespaces/inkscape"
   xmlns:sodipodi="http://sodipodi.sourceforge.net/DTD/sodipodi-0.dtd"
   xmlns="http://www.w3.org/2000/svg"
   xmlns:svg="http://www.w3.org/2000/svg">
  <sodipodi:namedview
     id="namedview387"
     pagecolor="#ff5a5a"
     bordercolor="#666666"
     borderopacity="1.0"
     inkscape:showpageshadow="2"
     inkscape:pageopacity="0"
     inkscape:pagecheckerboard="0"
     inkscape:deskcolor="#d1d1d1"
     showgrid="false"
     inkscape:zoom="1.0544861"
     inkscape:cx="324.80276"
     inkscape:cy="120.43781"
     inkscape:window-width="1920"
     inkscape:window-height="1017"
     inkscape:window-x="-8"
     inkscape:window-y="2"
     inkscape:window-maximized="1"
     inkscape:current-layer="Layer_1" />
  <defs
     id="defs376">
    <style
       id="style374">.cls-1{fill:#fff;stroke-width:0px;}</style>
  </defs>
  <path
     class="cls-1"
     d="M 125.52,3.31 C 65.14,0.91 14.26,47.91 11.86,108.29 9.46,168.67 56.47,219.55 116.84,221.95 177.22,224.35 228.1,177.35 230.5,116.97 232.89,56.59 185.89,5.7 125.52,3.31 Z m 46.18,160.28 c -1.36,2.4 -4.01,3.6 -6.59,3.24 -0.79,-0.11 -1.58,-0.37 -2.32,-0.79 -14.46,-8.23 -30.22,-13.59 -46.84,-15.93 -16.62,-2.34 -33.25,-1.53 -49.42,2.4 -3.51,0.85 -7.04,-1.3 -7.89,-4.81 -0.85,-3.51 1.3,-7.04 4.81,-7.89 17.78,-4.32 36.06,-5.21 54.32,-2.64 18.26,2.57 35.58,8.46 51.49,17.51 3.13,1.79 4.23,5.77 2.45,8.91 z m 14.38,-28.72 c -2.23,4.12 -7.39,5.66 -11.51,3.43 -16.92,-9.15 -35.24,-15.16 -54.45,-17.86 -19.21,-2.7 -38.47,-1.97 -57.26,2.16 -1.02,0.22 -2.03,0.26 -3.01,0.12 -3.41,-0.48 -6.33,-3.02 -7.11,-6.59 -1.01,-4.58 1.89,-9.11 6.47,-10.12 20.77,-4.57 42.06,-5.38 63.28,-2.4 21.21,2.98 41.46,9.62 60.16,19.74 4.13,2.23 5.66,7.38 3.43,11.51 z m 15.94,-32.38 c -2.1,4.04 -6.47,6.13 -10.73,5.53 -1.15,-0.16 -2.28,-0.52 -3.37,-1.08 C 168.22,96.69 147,89.92 124.85,86.81 102.7,83.7 80.43,84.36 58.67,88.78 53.01,89.93 47.5,86.27 46.35,80.62 45.2,74.96 48.86,69.45 54.51,68.3 c 24.1,-4.89 48.74,-5.62 73.25,-2.18 24.51,3.44 47.99,10.94 69.81,22.29 5.12,2.66 7.11,8.97 4.45,14.09 z"
     id="path378" />
  <path
     class="cls-1"
     d="m 341.25776,192.76635 c -22.9071,0 -42.573,-7.92706 -50.79139,-16.93452 -0.77693,-0.88617 -0.88619,-1.37175 -0.88619,-2.45215 v -26.81602 c 0,-1.27464 1.08042,-1.76021 1.95445,-0.67981 9.8815,12.33367 30.93129,22.40939 48.15714,22.40939 13.70542,0 22.90712,-3.71465 22.90712,-15.85409 0,-7.24725 -3.42334,-11.9452 -22.11805,-17.22586 l -10.76768,-3.03486 c -24.95866,-7.04087 -40.13298,-15.36852 -40.13298,-39.246786 0,-21.134755 19.56878,-39.732367 52.26027,-39.732367 16.04834,0 31.99955,4.989309 41.20124,11.848089 0.77693,0.582693 1.0804,1.177524 1.0804,2.245795 v 24.375983 c 0,1.663103 -1.37174,2.148679 -2.64639,1.080409 -7.44147,-6.166832 -21.82669,-14.482344 -38.85833,-14.482344 -17.03162,0 -25.0558,7.635704 -25.0558,14.676575 0,7.441476 5.18355,9.493026 23.68404,14.980066 l 9.2017,2.74352 c 28.47911,8.50973 40.13298,20.45494 40.13298,40.23008 0,25.44424 -21.13477,41.89317 -49.32253,41.89317 z m 199.56015,-51.09489 c 0,-15.56274 10.76768,-27.10734 25.94197,-27.10734 15.17428,0 25.83271,11.5446 25.83271,27.10734 0,15.56276 -10.76767,27.10736 -25.83271,27.10736 -15.06504,0 -25.94197,-11.5446 -25.94197,-27.10736 z m 25.8327,51.09489 c 31.6111,0 53.63202,-22.60364 53.63202,-51.09489 0,-28.49124 -22.02092,-51.094865 -53.63202,-51.094865 -31.61108,0 -53.5349,22.409395 -53.5349,51.094865 0,28.68549 21.82671,51.09489 53.5349,51.09489 z M 757.50678,84.713249 v 8.218395 h -16.64316 c -0.88617,0 -1.37175,0.485578 -1.37175,1.371759 v 19.568767 c 0,0.88618 0.48558,1.37175 1.37175,1.37175 h 16.64316 v 73.79562 c 0,0.88618 0.4856,1.37176 1.37178,1.37176 h 25.05577 c 0.88619,0 1.37178,-0.48558 1.37178,-1.37176 v -73.79562 h 21.43823 l 31.12549,67.62879 -16.74027,36.79461 c -0.48557,1.08042 0.0972,1.566 1.08042,1.566 h 26.7189 c 0.88616,0 1.27462,-0.19424 1.66309,-1.08041 l 55.2951,-125.667414 c 0.38849,-0.886183 -0.0972,-1.565991 -1.08039,-1.565991 h -25.0558 c -0.88617,0 -1.27464,0.194231 -1.6631,1.080411 L 852.83775,154.68494 827.49062,93.999916 c -0.38846,-0.88618 -0.77691,-1.080411 -1.66309,-1.080411 h -40.52142 v -6.458179 c 0,-10.573446 7.15012,-15.465638 16.33967,-15.465638 5.47488,0 11.44748,2.840628 15.65985,5.377768 0.9833,0.582693 1.66311,-0.09711 1.27465,-0.983293 l -8.81324,-21.037638 c -0.29132,-0.679809 -0.67981,-1.08041 -1.37175,-1.468872 -4.30949,-2.245794 -11.35036,-4.212383 -18.20915,-4.212383 -20.74629,0 -32.69149,15.854099 -32.69149,36.017699 z M 462.51856,192.17151 c 25.0558,0 43.05858,-21.63246 43.05858,-50.69427 0,-29.0618 -18.20916,-50.305814 -43.26496,-50.305814 -18.59759,0 -29.36528,11.350364 -35.62923,22.700744 V 94.303403 c 0,-0.886181 -0.48556,-1.371759 -1.37176,-1.371759 h -24.57021 c -0.88617,0 -1.37176,0.485578 -1.37176,1.371759 V 219.8737 c 0,0.88618 0.48559,1.37175 1.37176,1.37175 h 24.57021 c 0.8862,0 1.37176,-0.48557 1.37176,-1.37175 V 169.665 c 6.26395,11.35037 16.83739,22.50651 35.82348,22.50651 z m 209.05319,-0.38846 c 8.2184,0 16.14543,-2.14867 20.84341,-4.89219 0.67978,-0.38847 0.77692,-0.77694 0.77692,-1.46887 v -18.59761 c 0,-0.98331 -0.48559,-1.27463 -1.37176,-0.77693 -2.84062,1.56598 -6.55529,2.84062 -11.64172,2.84062 -8.02416,0 -13.11059,-4.69795 -13.11059,-15.07717 v -38.56698 h 24.4731 c 0.88618,0 1.37176,-0.48557 1.37176,-1.37175 V 94.303403 c 0,-0.886181 -0.48558,-1.371759 -1.37176,-1.371759 h -24.4731 V 67.390276 c 0,-1.080409 -0.67979,-1.663102 -1.6631,-0.886179 L 621.6544,100.95581 c -0.5827,0.48557 -0.77692,0.9833 -0.77692,1.76022 v 11.15614 c 0,0.88618 0.48557,1.37175 1.37175,1.37175 h 17.03162 v 42.67011 c 0,23.10134 13.30483,33.86902 32.30304,33.86902 z M 699.85661,63.966956 c 0,8.813228 6.84665,15.465639 16.24257,15.465639 9.39594,0 16.43679,-6.652411 16.43679,-15.465639 0,-8.813228 -6.84664,-15.465639 -16.43679,-15.465639 -9.59015,0 -16.24257,6.652411 -16.24257,15.465639 z m 3.81179,126.456484 h 25.0558 c 0.88617,0 1.37176,-0.48559 1.37176,-1.37176 V 94.315541 c 0,-0.886179 -0.48559,-1.371757 -1.37176,-1.371757 h -25.0558 c -0.88616,0 -1.37176,0.485578 -1.37176,1.371757 v 94.736139 c 0,0.88617 0.4856,1.37176 1.37176,1.37176 z M 426.10027,141.29515 c 4.50372,-15.07718 14.8708,-26.62176 28.96468,-26.62176 14.09387,0 22.70074,10.17282 22.70074,26.81598 0,16.64316 -9.29881,27.01025 -22.70074,27.01025 -13.40194,0 -24.4731,-12.91635 -28.96468,-27.20447 z"
     id="path380" />
</svg>
